<svg id="Capa_1" data-name="Capa 1" xmlns="http://www.w3.org/2000/svg" viewBox="0 0 1150.21 439.66"><defs><style>.cls-1{fill:#6400e0;}.cls-2{fill:#e5c403;}</style></defs><path class="cls-1" d="M673.77,134a24,24,0,0,0-24.16,23.89,23.56,23.56,0,0,0,4.56,13.93L635.85,190a24.38,24.38,0,0,0-31.17,2.49L574.74,222h0a11.79,11.79,0,0,1-16.55,0,11.46,11.46,0,0,1,0-16.36h0l47-46.46a23.69,23.69,0,0,0,2.52-30.8l18.34-18.12A23.81,23.81,0,1,0,616,90.89a23.5,23.5,0,0,0,4.56,13.91l-18.34,18.13A24.39,24.39,0,0,0,571,125.42l-34.1,33.7h0a11.81,11.81,0,0,1-16.56,0,11.46,11.46,0,0,1,0-16.34l51.23-50.63a23.68,23.68,0,0,0,2.53-30.79l18.32-18.11a24.39,24.39,0,0,0,31.16-2.49,23.69,23.69,0,0,0,0-33.77A24.39,24.39,0,0,0,589.4,7a23.64,23.64,0,0,0-2.52,30.8l-18.32,18.1a24.39,24.39,0,0,0-31.17,2.49L459,135.84h0l-4.36,4.31a35.45,35.45,0,0,0-9.36,34.51l17.85,65.87a36,36,0,0,0,25.57,25.26l66.66,17.64a36.48,36.48,0,0,0,34.92-9.25l4.35-4.3h0l44.21-43.68a23.69,23.69,0,0,0,2.52-30.8l18.33-18.11A24,24,0,1,0,673.77,134Z"/><path class="cls-2" d="M82.41,416.13v20.24H0V314.58H82.41v20.06H29.72v29H76.94v21.14H29.72v31.36Z"/><path class="cls-2" d="M102.82,436.37V339.56h27.9v96.81Zm66.46-2.92a8.71,8.71,0,0,1-3.56-6.92V375.3a53.94,53.94,0,0,0-.73-10.58,7.47,7.47,0,0,0-3.64-5q-2.92-1.74-9.67-1.74a147.68,147.68,0,0,0-19.14,1.46q.56-9.46,9.39-15.31t24.16-5.83q12.21,0,18.23,3.73a17.3,17.3,0,0,1,7.84,10.49q1.82,6.74,1.82,18.23v65.63H178.3A13.73,13.73,0,0,1,169.28,433.45Z"/><path class="cls-2" d="M216.22,301.28h27.9V436.37h-27.9ZM276,429.81,246.31,387l29.9-47.4h32.26l-31.72,47.77,33.73,49H286.05Q280.57,436.37,276,429.81Z"/><path class="cls-2" d="M350,342.48a8.72,8.72,0,0,1,3.55,6.93v49.95a69.16,69.16,0,0,0,.64,11,7.87,7.87,0,0,0,3.65,5.47c2,1.28,5.25,1.91,9.75,1.91a143.69,143.69,0,0,0,19.15-1.27q-.37,9.48-9.21,15.31t-24.16,5.84q-12.21,0-18.32-3.74a17.16,17.16,0,0,1-7.93-10.48q-1.83-6.75-1.82-18.23V339.56h15.67A13.79,13.79,0,0,1,350,342.48Zm66.27-2.92v96.81H388.33V339.56Z"/><path class="cls-2" d="M453.41,431.81a28.71,28.71,0,0,1-13.49-16.95q-3.29-10.94-3.28-29.17,0-16.05,3.28-26.07a27.94,27.94,0,0,1,13.13-15.77q9.84-5.75,28.8-5.75,18,0,27.17,5.84a26.68,26.68,0,0,1,11.85,15.95q2.73,10.13,2.92,26.89V395l-60.9-.19q0,10.77,1.28,15.32a9.53,9.53,0,0,0,6.11,6.47c3.21,1.28,8.66,1.91,16.31,1.91a103.75,103.75,0,0,0,15-1,85.45,85.45,0,0,0,14.5-3.55l3.28,18.23q-4.92,2.55-14.77,4.1a135.2,135.2,0,0,1-21,1.55Q463.61,437.83,453.41,431.81Zm45.4-53.05q-.19-10.39-1.1-14.59a7.41,7.41,0,0,0-4.28-5.65q-3.37-1.45-11.4-1.46-9.11,0-12.85,1.46a8.06,8.06,0,0,0-4.92,5.75q-1.18,4.28-1.37,14.49Z"/><path class="cls-2" d="M543.29,436.37V339.56h27.89v96.81Zm66.45-2.92a8.7,8.7,0,0,1-3.55-6.92V375.3a54.75,54.75,0,0,0-.73-10.58,7.48,7.48,0,0,0-3.65-5Q598.9,358,592.15,358A147.55,147.55,0,0,0,573,359.43q.54-9.46,9.39-15.31t24.15-5.83q12.23,0,18.23,3.73a17.23,17.23,0,0,1,7.84,10.49q1.83,6.74,1.83,18.23v65.63H618.77A13.74,13.74,0,0,1,609.74,433.45Z"/><path class="cls-2" d="M695,437.46q-10.2,0-17-2.55a19.69,19.69,0,0,1-10.48-9.3q-3.75-6.74-3.74-19v-49H649l-.18-18.05h14.4V317.32L690.6,312v27.53h20.78v18.05H690.6v50.32q0,6.56,2.28,8.93t8.29,2.37q3.29,0,9.48-.36l1.1,17.14A84.75,84.75,0,0,1,695,437.46Z"/><path class="cls-2" d="M727.42,339.56h27.72l-.73,15.32H755q2.92-8.76,8-12.13t13.5-3.37q5.64,0,11.85.36l-2.92,18.78c-3.65-.24-6.56-.36-8.75-.36l-4.56-.19q-17,.73-17,9.85v68.55H727.42Z"/><path class="cls-2" d="M854.31,393q-6.55-.92-22.78-.91-7.12,0-9.94,2.82t-2.83,9.58q0,7.11,3.47,10.75c2.3,2.43,6.32,3.65,12,3.65a142.48,142.48,0,0,0,18.6-1.28,21.79,21.79,0,0,1-9.3,14.41q-7.84,5.64-19.69,5.65-17.88,0-24.89-8.94t-7-21.87q0-15.13,10.3-22.89t27.44-7.74A183,183,0,0,1,854.31,378q0-6.93-.36-10.39a10.9,10.9,0,0,0-4.56-8q-4-2.92-15.13-2.92a98.62,98.62,0,0,0-14.68,1.18,73.1,73.1,0,0,0-13.76,3.38L801.26,343a135.9,135.9,0,0,1,16.32-3.92,122.37,122.37,0,0,1,21.24-1.55q26.07,0,34.36,9.48t8.3,20.42v68.91H854.31Z"/><path class="cls-2" d="M907.37,436.37V342.84h13.31v93.53Zm64.08-1.46a5,5,0,0,1-1.55-3.83v-56.7q0-8.92-1-13.12a10.62,10.62,0,0,0-5.38-6.75q-4.38-2.55-14.4-2.55-5.29,0-13,.64t-13.76,1.55q.72-6.19,11.12-9.3a78.67,78.67,0,0,1,22.61-3.1q11.66,0,17.59,3.28a15.58,15.58,0,0,1,7.75,9.48q1.82,6.21,1.82,16.77v65.09h-7.66A5.7,5.7,0,0,1,971.45,434.91Z"/><path class="cls-2" d="M1023.05,432.27q-8.49-5.2-11.22-15.59t-2.73-30.08q0-17.33,2.55-26.53a21.85,21.85,0,0,1,10.67-13.76q8.1-4.56,24.52-4.56t24.25,4.56a21.38,21.38,0,0,1,10.21,13.58q2.35,9,2.55,26.16v6.2h-61.62q0,15.13,1.91,22.15t7.66,9.76q5.75,2.73,18.32,2.73,16.77,0,27-4.74l2.74,9.85q-4.2,2.55-12.4,4a104.86,104.86,0,0,1-18.23,1.45Q1031.53,437.46,1023.05,432.27Zm48-49.14q-.19-14-1.83-20.23t-6.38-8.57q-4.74-2.37-15.49-2.37-11.13,0-16.23,2.46c-3.4,1.64-5.72,4.56-6.93,8.75s-1.89,10.85-2,20Z"/><path class="cls-2" d="M1138.72,437.28q-11.85,0-17.86-5.28t-6-19.88v-59.8h-16v-9.48h15.67V320.42l13.5-4.19v26.61h21.87v9.48H1128v60.17q0,6.19,1.27,9.39a7.56,7.56,0,0,0,4,4.37,19.84,19.84,0,0,0,7.66,1.19l8.57-.37.73,9.48A74.34,74.34,0,0,1,1138.72,437.28Z"/></svg>